<?xml version="1.0" encoding="utf-8"?>
<!-- Generator: Adobe Illustrator 26.0.3, SVG Export Plug-In . SVG Version: 6.00 Build 0)  -->
<svg version="1.1" id="Layer_1" xmlns="http://www.w3.org/2000/svg" xmlns:xlink="http://www.w3.org/1999/xlink" x="0px" y="0px"
	 viewBox="0 0 95.6 20.3" style="enable-background:new 0 0 95.6 20.3;" xml:space="preserve">
<style type="text/css">
	.st0{fill:#3399CC;}
	.st1{fill:#FFFFFF;}
</style>
<g>
	<g>
		<path class="st0" d="M12.3,12.1l6.8-6.8c-0.3-0.6-0.7-1.1-1.1-1.6L6.5,15.1C7.9,15.2,10.2,14.2,12.3,12.1z"/>
		<path class="st0" d="M10.9,0L5.6,5.3c-1.7,1.7-2.3,4-1.8,6.2c0.6-1.6,1.7-3.3,3.2-4.8l6.3-6.3C12.4,0.2,11.7,0.1,10.9,0z"/>
		<path class="st0" d="M5.2,13.8L16.7,2.3c-0.5-0.4-1.1-0.8-1.6-1.1L8.3,8C6.2,10.1,5.1,12.4,5.2,13.8z"/>
		<path class="st0" d="M15,14.8l5.3-5.3c-0.1-0.8-0.2-1.6-0.4-2.3l-6.3,6.3c-1.5,1.5-3.2,2.6-4.8,3.2C11,17,13.4,16.4,15,14.8z"/>
		<path class="st0" d="M20.1,12.3l-3.8,3.8c-3.3,3.3-8.8,3.3-12.1,0C0.9,12.8,0.9,7.3,4.2,4L8,0.2C6.2,0.6,4.4,1.5,3,3
			c-4,4-4,10.4,0,14.4s10.4,4,14.4,0C18.8,15.9,19.7,14.1,20.1,12.3z"/>
	</g>
	<g>
		<path class="st1" d="M31.8,2.8c3,0,5.3,2.2,5.3,5c0,2.8-2.3,5-5.3,5h-4v5.4h-2.9V2.8H31.8z M27.8,5.5v4.5h4c1.3,0,2.2-1,2.2-2.3
			c0-1.3-1-2.2-2.2-2.2H27.8z"/>
		<path class="st1" d="M38.4,6.8h2.8v1.4c0.5-0.7,1.6-1.7,3.4-1.7h0.3v3.1c-0.3-0.2-0.7-0.2-1.1-0.2c-1.5,0-2.6,1.1-2.6,2.7v6.3
			h-2.8V6.8z"/>
		<path class="st1" d="M51,6.4c3.4,0,6,2.6,6,6.1c0,0.3,0,0.7-0.1,1h-9.1c0.4,1.5,1.7,2.5,3.3,2.5c1.1,0,2.1-0.5,2.7-1.2l2.7,0.8
			c-1,1.8-3,3-5.3,3c-3.5,0-6.2-2.6-6.2-6.1S47.6,6.4,51,6.4z M47.8,11.4h6.3C53.7,9.9,52.5,9,51,9C49.5,9,48.3,9.9,47.8,11.4z"/>
		<path class="st0" d="M65.2,2.8c3,0,5.3,2.2,5.3,5c0,2.8-2.3,5-5.3,5h-4v5.4h-2.9V2.8H65.2z M61.2,5.5v4.5h4c1.3,0,2.2-1,2.2-2.3
			c0-1.3-1-2.2-2.2-2.2H61.2z"/>
		<path class="st0" d="M76.2,6.4c1.3,0,2.5,0.5,3.5,1.3V6.8h2.7v11.4h-2.7v-0.9c-0.9,0.8-2.1,1.3-3.5,1.3c-3.2,0-5.6-2.6-5.6-6.1
			S73.1,6.4,76.2,6.4z M73.5,12.5c0,1.9,1.4,3.3,3.1,3.3c1.7,0,3.1-1.4,3.1-3.3s-1.3-3.3-3.1-3.3C74.9,9.2,73.5,10.6,73.5,12.5z"/>
		<path class="st0" d="M89.4,6.4c1.3,0,2.5,0.5,3.5,1.3v-6h2.7v16.5h-2.7v-0.9c-0.9,0.8-2.1,1.3-3.5,1.3c-3.2,0-5.6-2.6-5.6-6.1
			S86.2,6.4,89.4,6.4z M86.6,12.5c0,1.9,1.4,3.3,3.1,3.3c1.7,0,3.1-1.4,3.1-3.3s-1.3-3.3-3.1-3.3C88,9.2,86.6,10.6,86.6,12.5z"/>
	</g>
</g>
</svg>
